<svg xmlns="http://www.w3.org/2000/svg" style="display: none;">
    <symbol viewBox="0 0 498 100" id="icon-logo">
        <rect width="99.5" height="99.5" x=".25" y=".25" stroke="#222" fill="#A11" stroke-width=".5"/>
        <g transform="rotate(45 17.565 63.435)">
          <rect width="26.071" height="26.071" x="35.679" y=".25" stroke="#222" fill="#fff" stroke-width=".5"/>
          <rect width="26.071" height="26.071" x=".25" y="35.679" stroke="#222" fill="#fff" stroke-width=".5"/>
          <rect width="26.071" height="26.071" x="35.679" y="35.679" stroke="#222" fill="#fff" stroke-width=".5"/>
          <rect width="26.071" height="26.071" x=".25" y=".25" stroke="#222" fill="#fff" stroke-width=".5"/>
        </g>
        <text fill="#A11" stroke="#222" stroke-width=".5" font-family="Gotham-Black, Gotham" font-size="86.1" font-weight="700" style="text-transform: uppercase;">
          <tspan x="105" y="62">Barry's</tspan>
        </text>
        <text fill="#A11" stroke="#222" stroke-width=".5" font-family="Gotham-Black, Gotham" font-size="36.2" font-weight="700" style="text-transform: uppercase;">
          <tspan x="109" y="99">Gravely Tractors</tspan>
        </text>
    </symbol>
    <symbol id="icon-bars" viewBox="0 0 27 32">
        <path class="path1" d="M27.429 24v2.286q0 0.464-0.339 0.804t-0.804 0.339h-25.143q-0.464 0-0.804-0.339t-0.339-0.804v-2.286q0-0.464 0.339-0.804t0.804-0.339h25.143q0.464 0 0.804 0.339t0.339 0.804zM27.429 14.857v2.286q0 0.464-0.339 0.804t-0.804 0.339h-25.143q-0.464 0-0.804-0.339t-0.339-0.804v-2.286q0-0.464 0.339-0.804t0.804-0.339h25.143q0.464 0 0.804 0.339t0.339 0.804zM27.429 5.714v2.286q0 0.464-0.339 0.804t-0.804 0.339h-25.143q-0.464 0-0.804-0.339t-0.339-0.804v-2.286q0-0.464 0.339-0.804t0.804-0.339h25.143q0.464 0 0.804 0.339t0.339 0.804z"></path>
    </symbol>
    <symbol id="icon-close" viewBox="0 0 25 32">
        <path class="path1" d="M23.179 23.607q0 0.714-0.5 1.214l-2.429 2.429q-0.5 0.5-1.214 0.5t-1.214-0.5l-5.25-5.25-5.25 5.25q-0.5 0.5-1.214 0.5t-1.214-0.5l-2.429-2.429q-0.5-0.5-0.5-1.214t0.5-1.214l5.25-5.25-5.25-5.25q-0.5-0.5-0.5-1.214t0.5-1.214l2.429-2.429q0.5-0.5 1.214-0.5t1.214 0.5l5.25 5.25 5.25-5.25q0.5-0.5 1.214-0.5t1.214 0.5l2.429 2.429q0.5 0.5 0.5 1.214t-0.5 1.214l-5.25 5.25 5.25 5.25q0.5 0.5 0.5 1.214z"></path>
    </symbol>
</svg>
